<svg width="160" height="40" viewBox="0 0 160 40" fill="none" xmlns="http://www.w3.org/2000/svg">
<rect x="0.5" y="0.5" width="159" height="39" rx="19.5" stroke="#FF6C00"/>
<path d="M28.7305 20.7051C28.7305 21.3652 28.6465 21.9668 28.4785 22.5098C28.3145 23.0488 28.0664 23.5137 27.7344 23.9043C27.4023 24.291 26.9863 24.5898 26.4863 24.8008C25.9863 25.0117 25.4004 25.1172 24.7285 25.1172C24.0449 25.1172 23.4512 25.0117 22.9473 24.8008C22.4473 24.5898 22.0312 24.2891 21.6992 23.8984C21.3711 23.5078 21.125 23.041 20.9609 22.498C20.7969 21.9551 20.7148 21.3535 20.7148 20.6934C20.7148 19.8105 20.8594 19.041 21.1484 18.3848C21.4414 17.7246 21.8848 17.2129 22.4785 16.8496C23.0762 16.4824 23.8301 16.2988 24.7402 16.2988C25.6309 16.2988 26.3711 16.4805 26.9609 16.8438C27.5508 17.207 27.9922 17.7188 28.2852 18.3789C28.582 19.0352 28.7305 19.8105 28.7305 20.7051ZM22.1914 20.7051C22.1914 21.3652 22.2812 21.9375 22.4609 22.4219C22.6406 22.9023 22.916 23.2734 23.2871 23.5352C23.6621 23.793 24.1426 23.9219 24.7285 23.9219C25.3184 23.9219 25.7988 23.793 26.1699 23.5352C26.541 23.2734 26.8145 22.9023 26.9902 22.4219C27.166 21.9375 27.2539 21.3652 27.2539 20.7051C27.2539 19.7012 27.0527 18.916 26.6504 18.3496C26.252 17.7793 25.6152 17.4941 24.7402 17.4941C24.1543 17.4941 23.6719 17.623 23.293 17.8809C22.918 18.1387 22.6406 18.5078 22.4609 18.9883C22.2812 19.4648 22.1914 20.0371 22.1914 20.7051ZM38.4062 25H37.0058V21.1328H33.0566V25H31.6503V16.4336H33.0566V19.9375H37.0058V16.4336H38.4062V25ZM48.1932 25H46.787V17.6289H44.3495C44.2987 18.0312 44.244 18.4609 44.1854 18.918C44.1268 19.3711 44.0662 19.8262 44.0037 20.2832C43.9412 20.7402 43.8768 21.1738 43.8104 21.584C43.7479 21.9941 43.6834 22.3555 43.617 22.668C43.5155 23.1914 43.3827 23.6367 43.2186 24.0039C43.0584 24.3672 42.8416 24.6445 42.5682 24.8359C42.2948 25.0273 41.9373 25.123 41.4959 25.123C41.3475 25.123 41.203 25.1094 41.0623 25.082C40.9217 25.0586 40.7948 25.0273 40.6815 24.9883V23.8281C40.7752 23.8633 40.8748 23.8945 40.9803 23.9219C41.0897 23.9453 41.2049 23.957 41.326 23.957C41.5291 23.957 41.6912 23.8828 41.8123 23.7344C41.9373 23.582 42.0409 23.3672 42.1229 23.0898C42.2049 22.8086 42.283 22.4766 42.3573 22.0938C42.4002 21.8633 42.453 21.5586 42.5155 21.1797C42.578 20.7969 42.6463 20.3555 42.7205 19.8555C42.7948 19.3555 42.8709 18.8164 42.9491 18.2383C43.0311 17.6562 43.1092 17.0547 43.1834 16.4336H48.1932V25ZM56.8377 25L55.9998 22.6211H52.7244L51.8865 25H50.4041L53.5916 16.3984H55.1502L58.3318 25H56.8377ZM55.6365 21.4141L54.822 19.0703C54.7908 18.9688 54.7459 18.8262 54.6873 18.6426C54.6287 18.4551 54.5701 18.2656 54.5115 18.0742C54.4529 17.8789 54.4041 17.7148 54.365 17.582C54.3259 17.7422 54.2771 17.9219 54.2185 18.1211C54.1638 18.3164 54.1091 18.5 54.0545 18.6719C54.0037 18.8438 53.9646 18.9766 53.9373 19.0703L53.117 21.4141H55.6365ZM60.5485 16.4336H61.8317V20.9746C61.8317 21.1699 61.8298 21.3848 61.8259 21.6191C61.822 21.8535 61.8141 22.082 61.8024 22.3047C61.7946 22.5273 61.7868 22.7266 61.779 22.9023C61.7712 23.0742 61.7634 23.1992 61.7555 23.2773H61.7966L66.1559 16.4336H67.7907V25H66.5192V20.4941C66.5192 20.2832 66.5231 20.0547 66.5309 19.8086C66.5387 19.5625 66.5485 19.3242 66.5602 19.0938C66.572 18.8633 66.5837 18.6602 66.5954 18.4844C66.6071 18.3086 66.6149 18.1836 66.6188 18.1094H66.5661L62.195 25H60.5485V16.4336ZM66.8591 13.6973C66.82 14.0996 66.7106 14.4473 66.5309 14.7402C66.3552 15.0293 66.0876 15.252 65.7282 15.4082C65.3688 15.5645 64.8962 15.6426 64.3102 15.6426C63.7048 15.6426 63.2262 15.5684 62.8747 15.4199C62.5231 15.2676 62.2692 15.0469 62.113 14.7578C61.9567 14.4648 61.863 14.1113 61.8317 13.6973H63.0856C63.1247 14.1309 63.238 14.4238 63.4255 14.5762C63.613 14.7246 63.9157 14.7988 64.3337 14.7988C64.693 14.7988 64.9802 14.7188 65.195 14.5586C65.4137 14.3984 65.5446 14.1113 65.5876 13.6973H66.8591ZM77.8824 25H76.482V21.1328H72.5328V25H71.1266V16.4336H72.5328V19.9375H76.482V16.4336H77.8824V25ZM80.5269 22.3633V21.1973H83.5503V22.3633H80.5269ZM91.6381 18.4375C91.6381 19.0156 91.4448 19.4785 91.058 19.8262C90.6752 20.1699 90.1752 20.3887 89.558 20.4824V20.5234C90.3002 20.6133 90.8686 20.8359 91.2631 21.1914C91.6577 21.543 91.8549 22.0039 91.8549 22.5742C91.8549 23.0742 91.7241 23.5156 91.4623 23.8984C91.2006 24.2812 90.81 24.5801 90.2905 24.7949C89.7709 25.0098 89.1264 25.1172 88.3569 25.1172C87.7983 25.1172 87.2885 25.0781 86.8276 25C86.3666 24.9258 85.9565 24.8086 85.5971 24.6484V23.4297C85.8432 23.5469 86.1127 23.6484 86.4057 23.7344C86.7026 23.8164 87.0034 23.8809 87.308 23.9277C87.6166 23.9707 87.9057 23.9922 88.1752 23.9922C88.9409 23.9922 89.5092 23.8633 89.8803 23.6055C90.2514 23.3477 90.437 22.9824 90.437 22.5098C90.437 22.0254 90.1967 21.6719 89.7162 21.4492C89.2358 21.2266 88.5776 21.1152 87.7416 21.1152H86.7221V19.9902H87.6772C88.2983 19.9902 88.7963 19.9355 89.1713 19.8262C89.5463 19.7168 89.8178 19.5605 89.9858 19.3574C90.1537 19.1543 90.2377 18.9121 90.2377 18.6309C90.2377 18.2598 90.0893 17.9707 89.7924 17.7637C89.4995 17.5527 89.0932 17.4473 88.5737 17.4473C88.0815 17.4473 87.6498 17.5137 87.2787 17.6465C86.9077 17.7793 86.5541 17.9531 86.2182 18.168L85.5795 17.2246C85.8412 17.0449 86.1264 16.8867 86.435 16.75C86.7475 16.6133 87.0912 16.5059 87.4662 16.4277C87.8412 16.3496 88.2534 16.3105 88.7026 16.3105C89.3276 16.3105 89.8569 16.4023 90.2905 16.5859C90.728 16.7656 91.062 17.0156 91.2924 17.3359C91.5229 17.6562 91.6381 18.0234 91.6381 18.4375ZM99.9603 25L99.1224 22.6211H95.847L95.0091 25H93.5267L96.7142 16.3984H98.2728L101.454 25H99.9603ZM98.7591 21.4141L97.9447 19.0703C97.9134 18.9688 97.8685 18.8262 97.8099 18.6426C97.7513 18.4551 97.6927 18.2656 97.6341 18.0742C97.5755 17.8789 97.5267 17.7148 97.4877 17.582C97.4486 17.7422 97.3998 17.9219 97.3412 18.1211C97.2865 18.3164 97.2318 18.5 97.1771 18.6719C97.1263 18.8438 97.0873 18.9766 97.0599 19.0703L96.2396 21.4141H98.7591ZM103.665 25V16.4336H110.245V25H108.851V17.6289H105.072V25H103.665ZM113.599 16.4336H114.882V20.9746C114.882 21.1699 114.88 21.3848 114.876 21.6191C114.872 21.8535 114.864 22.082 114.853 22.3047C114.845 22.5273 114.837 22.7266 114.829 22.9023C114.821 23.0742 114.814 23.1992 114.806 23.2773H114.847L119.206 16.4336H120.841V25H119.57V20.4941C119.57 20.2832 119.573 20.0547 119.581 19.8086C119.589 19.5625 119.599 19.3242 119.611 19.0938C119.622 18.8633 119.634 18.6602 119.646 18.4844C119.657 18.3086 119.665 18.1836 119.669 18.1094H119.616L115.245 25H113.599V16.4336ZM127.827 17.5059C127.417 17.5059 127.05 17.5801 126.726 17.7285C126.405 17.877 126.134 18.0918 125.911 18.373C125.689 18.6504 125.519 18.9883 125.401 19.3867C125.284 19.7812 125.226 20.2266 125.226 20.7227C125.226 21.3867 125.319 21.959 125.507 22.4395C125.694 22.916 125.98 23.2832 126.362 23.541C126.745 23.7949 127.23 23.9219 127.816 23.9219C128.179 23.9219 128.532 23.8867 128.876 23.8164C129.22 23.7461 129.575 23.6504 129.942 23.5293V24.7246C129.595 24.8613 129.243 24.9609 128.888 25.0234C128.532 25.0859 128.122 25.1172 127.657 25.1172C126.782 25.1172 126.056 24.9355 125.478 24.5723C124.903 24.209 124.474 23.6973 124.189 23.0371C123.907 22.377 123.767 21.6035 123.767 20.7168C123.767 20.0684 123.857 19.4746 124.036 18.9355C124.216 18.3965 124.478 17.9316 124.821 17.541C125.165 17.1465 125.589 16.8438 126.093 16.6328C126.601 16.418 127.181 16.3105 127.833 16.3105C128.263 16.3105 128.685 16.3594 129.099 16.457C129.517 16.5508 129.903 16.6855 130.259 16.8613L129.767 18.0215C129.47 17.8809 129.159 17.7598 128.835 17.6582C128.511 17.5566 128.175 17.5059 127.827 17.5059ZM132.862 25V16.4336H134.269V19.8965H135.44C136.23 19.8965 136.87 20.0059 137.362 20.2246C137.855 20.4395 138.214 20.7363 138.44 21.1152C138.671 21.4941 138.786 21.9258 138.786 22.4102C138.786 23.2148 138.519 23.8477 137.983 24.3086C137.452 24.7695 136.622 25 135.493 25H132.862ZM134.269 23.8281H135.405C136.034 23.8281 136.517 23.7168 136.853 23.4941C137.189 23.2676 137.356 22.9062 137.356 22.4102C137.356 22.0625 137.274 21.793 137.11 21.6016C136.946 21.4062 136.708 21.2695 136.396 21.1914C136.083 21.1133 135.702 21.0742 135.253 21.0742H134.269V23.8281Z" fill="#303030"/>
</svg>
